<svg width="24" height="24" xmlns="http://www.w3.org/2000/svg" viewBox="0 0 24 24">
    <path d="M12.03 2.99C12.03 2.99 12.02 2.99 12.01 2.99C10.02 3.01 8.23 4.3 7.6 6.25C6.5 9.05 8.28 12.01 8.28 12.01C8.28 12.01 8.26 12.03 8.24 12.06C8.16 12.18 7.92 12.53 7.92 12.53C7.92 12.53 5.9 15.05 5.9 17.66C5.9 20.06 7.84 22 10.24 22C10.99 22 11.69 21.83 12.28 21.54C12.85 21.82 13.52 22 14.26 22C16.66 22 18.6 20.06 18.6 17.66C18.6 15.05 16.58 12.53 16.58 12.53C16.58 12.53 16.34 12.18 16.26 12.06C16.24 12.03 16.22 12.01 16.22 12.01C16.22 12.01 17.99 9.05 16.9 6.25C16.27 4.3 14.48 3.01 12.49 2.99C12.49 2.99 12.24 2.99 12.03 2.99ZM12.01 4.99C12.01 4.99 12.02 4.99 12.03 4.99C13.13 4.99 14.11 5.7 14.53 6.75C15.06 7.99 14.59 9.37 14.59 9.37C14.59 9.37 14.58 9.39 14.56 9.42C14.4 9.74 13.73 10.88 13.73 10.88C13.73 10.88 12.46 12.88 12.46 14.66C12.46 15.1 12.63 15.51 12.91 15.82C13.05 15.98 13.23 16.1 13.42 16.17C13.72 16.29 14.06 16.27 14.34 16.13C14.86 15.89 15.26 15.37 15.26 14.76C15.26 13.9 16.16 12.8 16.16 12.8C16.16 12.8 17.06 11.38 17.06 9.67C17.06 7.27 14.79 5 12.29 5C12.29 5 12.01 4.99 12.01 4.99ZM9.99 9.67C9.99 11.38 10.88 12.8 10.88 12.8C10.88 12.8 11.78 13.9 11.78 14.76C11.78 15.37 12.18 15.89 12.7 16.13C12.98 16.27 13.32 16.29 13.62 16.17C13.81 16.1 13.99 15.98 14.13 15.82C14.41 15.51 14.58 15.1 14.58 14.66C14.58 12.88 13.31 10.88 13.31 10.88C13.31 10.88 12.64 9.74 12.48 9.42C12.46 9.39 12.45 9.37 12.45 9.37C12.45 9.37 11.98 7.99 12.51 6.75C12.93 5.7 13.91 4.99 14.99 4.99C14.99 4.99 15.01 4.99 15.03 5C17.53 5 19.8 7.27 19.8 9.67C19.8 11.92 18.48 13.88 17.9 14.69C17.49 15.28 17.1 15.89 17.1 16.56C17.1 18.46 15.76 20 14.26 20C13.76 20 13.3 19.85 12.9 19.6C12.44 19.88 11.88 20 11.28 20C9.78 20 8.44 18.46 8.44 16.56C8.44 15.89 8.05 15.28 7.64 14.69C7.06 13.88 5.74 11.92 5.74 9.67C5.74 7.27 8.01 5 10.51 5C10.51 5 10.23 4.99 9.99 9.67Z" fill="#FF7043"/>
</svg>
